# Blender 5.1.0
# www.blender.org
mtllib Sword.mtl
o Cylinder.001
v 0.000000 0.406530 -0.597469
v 0.000000 0.560804 -0.597469
v 0.036316 0.406530 -0.585989
v 0.036316 0.560804 -0.585989
v 0.071237 0.406530 -0.551989
v 0.071237 0.560804 -0.551989
v 0.103420 0.406530 -0.496777
v 0.103420 0.560804 -0.496777
v 0.131628 0.406530 -0.422474
v 0.131628 0.560804 -0.422474
v 0.154778 0.406530 -0.331936
v 0.154778 0.560804 -0.331936
v 0.171981 0.406530 -0.228641
v 0.171981 0.560804 -0.228641
v 0.182574 0.406530 -0.116560
v 0.182574 0.560804 -0.116560
v 0.186151 0.406530 0.000000
v 0.186151 0.560804 0.000000
v 0.182574 0.406530 0.116560
v 0.182574 0.560804 0.116560
v 0.171981 0.406530 0.228641
v 0.171981 0.560804 0.228641
v 0.154778 0.406530 0.331936
v 0.154778 0.560804 0.331936
v 0.131628 0.406530 0.422474
v 0.131628 0.560804 0.422474
v 0.103420 0.406530 0.496777
v 0.103420 0.560804 0.496777
v 0.071237 0.406530 0.551989
v 0.071237 0.560804 0.551989
v 0.036316 0.406530 0.585989
v 0.036316 0.560804 0.585989
v 0.000000 0.406530 0.597469
v 0.000000 0.560804 0.597469
v -0.036316 0.406530 0.585989
v -0.036316 0.560804 0.585989
v -0.071237 0.406530 0.551989
v -0.071237 0.560804 0.551989
v -0.103420 0.406530 0.496777
v -0.103420 0.560804 0.496777
v -0.131628 0.406530 0.422474
v -0.131628 0.560804 0.422474
v -0.154778 0.406530 0.331936
v -0.154778 0.560804 0.331936
v -0.171981 0.406530 0.228641
v -0.171981 0.560804 0.228641
v -0.182574 0.406530 0.116560
v -0.182574 0.560804 0.116560
v -0.186151 0.406530 0.000000
v -0.186151 0.560804 0.000000
v -0.182574 0.406530 -0.116560
v -0.182574 0.560804 -0.116560
v -0.171981 0.406530 -0.228641
v -0.171981 0.560804 -0.228641
v -0.154778 0.406530 -0.331936
v -0.154778 0.560804 -0.331936
v -0.131628 0.406530 -0.422474
v -0.131628 0.560804 -0.422474
v -0.103420 0.406530 -0.496777
v -0.103420 0.560804 -0.496777
v -0.071237 0.406530 -0.551989
v -0.071237 0.560804 -0.551989
v -0.036316 0.406530 -0.585989
v -0.036316 0.560804 -0.585989
v -0.000000 -0.156745 -0.111833
v -0.000000 0.438247 -0.111833
v 0.019279 -0.156745 -0.109684
v 0.019279 0.438247 -0.109684
v 0.037817 -0.156745 -0.103320
v 0.037817 0.438247 -0.103320
v 0.054902 -0.156745 -0.092986
v 0.054902 0.438247 -0.092986
v 0.069877 -0.156745 -0.079078
v 0.069877 0.438247 -0.079078
v 0.082166 -0.156745 -0.062131
v 0.082166 0.438247 -0.062131
v 0.091298 -0.156745 -0.042797
v 0.091298 0.438247 -0.042797
v 0.096922 -0.156745 -0.021818
v 0.096922 0.438247 -0.021818
v 0.098821 -0.156745 -0.000000
v 0.098821 0.438247 -0.000000
v 0.096922 -0.156745 0.021818
v 0.096922 0.438247 0.021818
v 0.091298 -0.156745 0.042797
v 0.091298 0.438247 0.042797
v 0.082166 -0.156745 0.062131
v 0.082166 0.438247 0.062131
v 0.069877 -0.156745 0.079078
v 0.069877 0.438247 0.079078
v 0.054902 -0.156745 0.092986
v 0.054902 0.438247 0.092986
v 0.037817 -0.156745 0.103320
v 0.037817 0.438247 0.103320
v 0.019279 -0.156745 0.109684
v 0.019279 0.438247 0.109684
v -0.000000 -0.156745 0.111833
v -0.000000 0.438247 0.111833
v -0.019279 -0.156745 0.109684
v -0.019279 0.438247 0.109684
v -0.037817 -0.156745 0.103320
v -0.037817 0.438247 0.103320
v -0.054902 -0.156745 0.092986
v -0.054902 0.438247 0.092986
v -0.069877 -0.156745 0.079078
v -0.069877 0.438247 0.079078
v -0.082166 -0.156745 0.062131
v -0.082166 0.438247 0.062131
v -0.091298 -0.156745 0.042797
v -0.091298 0.438247 0.042797
v -0.096922 -0.156745 0.021818
v -0.096922 0.438247 0.021818
v -0.098821 -0.156745 -0.000000
v -0.098821 0.438247 -0.000000
v -0.096922 -0.156745 -0.021818
v -0.096922 0.438247 -0.021818
v -0.091298 -0.156745 -0.042797
v -0.091298 0.438247 -0.042797
v -0.082166 -0.156745 -0.062131
v -0.082166 0.438247 -0.062131
v -0.069877 -0.156745 -0.079078
v -0.069877 0.438247 -0.079078
v -0.054902 -0.156745 -0.092986
v -0.054902 0.438247 -0.092986
v -0.037817 -0.156745 -0.103320
v -0.037817 0.438247 -0.103320
v -0.019279 -0.156745 -0.109684
v -0.019279 0.438247 -0.109684
v 0.000000 0.444155 -0.199521
v 0.000000 0.860557 -0.199521
v 0.012231 0.444155 -0.195688
v 0.012231 0.860557 -0.195688
v 0.023993 0.444155 -0.184334
v 0.023993 0.860557 -0.184334
v 0.034832 0.444155 -0.165896
v 0.034832 0.860557 -0.165896
v 0.044333 0.444155 -0.141083
v 0.044333 0.860557 -0.141083
v 0.052130 0.444155 -0.110848
v 0.052130 0.860557 -0.110848
v 0.057923 0.444155 -0.076353
v 0.057923 0.860557 -0.076353
v 0.061491 0.444155 -0.038925
v 0.061491 0.860557 -0.038925
v 0.062696 0.444155 0.000000
v 0.062696 0.860557 0.000000
v 0.061491 0.444155 0.038925
v 0.061491 0.860557 0.038925
v 0.057923 0.444155 0.076353
v 0.057923 0.860557 0.076353
v 0.052130 0.444155 0.110848
v 0.052130 0.860557 0.110848
v 0.044333 0.444155 0.141083
v 0.044333 0.860557 0.141083
v 0.034832 0.444155 0.165896
v 0.034832 0.860557 0.165896
v 0.023993 0.444155 0.184334
v 0.023993 0.860557 0.184334
v 0.012231 0.444155 0.195688
v 0.012231 0.860557 0.195688
v 0.000000 0.444155 0.199521
v 0.000000 0.860557 0.199521
v -0.012231 0.444155 0.195688
v -0.012231 0.860557 0.195688
v -0.023993 0.444155 0.184334
v -0.023993 0.860557 0.184334
v -0.034832 0.444155 0.165896
v -0.034832 0.860557 0.165896
v -0.044333 0.444155 0.141083
v -0.044333 0.860557 0.141083
v -0.052130 0.444155 0.110848
v -0.052130 0.860557 0.110848
v -0.057923 0.444155 0.076353
v -0.057923 0.860557 0.076353
v -0.061491 0.444155 0.038925
v -0.061491 0.860557 0.038925
v -0.062696 0.444155 0.000000
v -0.062696 0.860557 0.000000
v -0.061491 0.444155 -0.038925
v -0.061491 0.860557 -0.038925
v -0.057923 0.444155 -0.076353
v -0.057923 0.860557 -0.076353
v -0.052130 0.444155 -0.110848
v -0.052130 0.860557 -0.110848
v -0.044333 0.444155 -0.141083
v -0.044333 0.860557 -0.141083
v -0.034832 0.444155 -0.165896
v -0.034832 0.860557 -0.165896
v -0.023993 0.444155 -0.184334
v -0.023993 0.860557 -0.184334
v -0.012231 0.444155 -0.195688
v -0.012231 0.860557 -0.195688
v 0.000750 3.461808 -0.012004
v -0.000000 3.461808 -0.012240
v 0.001472 3.461808 -0.011308
v 0.002137 3.461808 -0.010177
v 0.002720 3.461808 -0.008655
v 0.003198 3.461808 -0.006800
v 0.003553 3.461808 -0.004684
v 0.003772 3.461808 -0.002388
v 0.003846 3.461808 -0.000000
v 0.003772 3.461808 0.002388
v 0.003553 3.461808 0.004684
v 0.003198 3.461808 0.006800
v 0.002720 3.461808 0.008655
v 0.002137 3.461808 0.010177
v 0.001472 3.461808 0.011308
v 0.000750 3.461808 0.012004
v -0.000000 3.461808 0.012240
v -0.000750 3.461808 0.012004
v -0.001472 3.461808 0.011308
v -0.002137 3.461808 0.010177
v -0.002720 3.461808 0.008655
v -0.003198 3.461808 0.006800
v -0.003553 3.461808 0.004684
v -0.003772 3.461808 0.002388
v -0.003846 3.461808 -0.000000
v -0.003772 3.461808 -0.002388
v -0.003553 3.461808 -0.004684
v -0.003198 3.461808 -0.006800
v -0.002720 3.461808 -0.008655
v -0.002137 3.461808 -0.010177
v -0.001472 3.461808 -0.011308
v -0.000750 3.461808 -0.012004
vn 0.3014 -0.0000 -0.9535
vn 0.6976 -0.0000 -0.7165
vn 0.8639 -0.0000 -0.5036
vn 0.9349 -0.0000 -0.3549
vn 0.9688 -0.0000 -0.2477
vn 0.9864 -0.0000 -0.1643
vn 0.9956 -0.0000 -0.0941
vn 0.9995 -0.0000 -0.0307
vn 0.9995 -0.0000 0.0307
vn 0.9956 -0.0000 0.0941
vn 0.9864 -0.0000 0.1643
vn 0.9688 -0.0000 0.2477
vn 0.9349 -0.0000 0.3549
vn 0.8639 -0.0000 0.5036
vn 0.6976 -0.0000 0.7165
vn 0.3014 -0.0000 0.9535
vn -0.3014 -0.0000 0.9535
vn -0.6976 -0.0000 0.7165
vn -0.8639 -0.0000 0.5036
vn -0.9349 -0.0000 0.3549
vn -0.9688 -0.0000 0.2477
vn -0.9864 -0.0000 0.1643
vn -0.9956 -0.0000 0.0941
vn -0.9995 -0.0000 0.0307
vn -0.9995 -0.0000 -0.0307
vn -0.9956 -0.0000 -0.0941
vn -0.9864 -0.0000 -0.1643
vn -0.9688 -0.0000 -0.2477
vn -0.9349 -0.0000 -0.3549
vn -0.8639 -0.0000 -0.5036
vn -0.0000 1.0000 -0.0000
vn -0.6976 -0.0000 -0.7165
vn -0.3014 -0.0000 -0.9535
vn -0.0000 -1.0000 -0.0000
vn 0.1108 -0.0000 -0.9938
vn 0.3247 -0.0000 -0.9458
vn 0.5176 -0.0000 -0.8556
vn 0.6805 -0.0000 -0.7327
vn 0.8095 -0.0000 -0.5871
vn 0.9042 -0.0000 -0.4271
vn 0.9659 -0.0000 -0.2589
vn 0.9962 -0.0000 -0.0867
vn 0.9962 -0.0000 0.0867
vn 0.9659 -0.0000 0.2589
vn 0.9042 -0.0000 0.4271
vn 0.8095 -0.0000 0.5871
vn 0.6805 -0.0000 0.7327
vn 0.5176 -0.0000 0.8556
vn 0.3247 -0.0000 0.9458
vn 0.1108 -0.0000 0.9938
vn -0.1108 -0.0000 0.9938
vn -0.3247 -0.0000 0.9458
vn -0.5176 -0.0000 0.8556
vn -0.6805 -0.0000 0.7327
vn -0.8095 -0.0000 0.5871
vn -0.9042 -0.0000 0.4271
vn -0.9659 -0.0000 0.2589
vn -0.9962 -0.0000 0.0867
vn -0.9962 -0.0000 -0.0867
vn -0.9659 -0.0000 -0.2589
vn -0.9042 -0.0000 -0.4271
vn -0.8095 -0.0000 -0.5871
vn -0.6805 -0.0000 -0.7327
vn -0.5176 -0.0000 -0.8556
vn -0.3247 -0.0000 -0.9458
vn -0.1108 -0.0000 -0.9938
vn 0.2991 -0.0000 -0.9542
vn 0.6945 -0.0000 -0.7195
vn 0.8621 -0.0000 -0.5068
vn 0.9339 -0.0000 -0.3576
vn 0.9683 -0.0000 -0.2497
vn 0.9862 -0.0000 -0.1656
vn 0.9955 -0.0000 -0.0949
vn 0.9995 -0.0000 -0.0309
vn 0.9995 -0.0000 0.0309
vn 0.9955 -0.0000 0.0949
vn 0.9862 -0.0000 0.1656
vn 0.9683 -0.0000 0.2497
vn 0.9339 -0.0000 0.3576
vn 0.8621 -0.0000 0.5068
vn 0.6945 -0.0000 0.7195
vn 0.2991 -0.0000 0.9542
vn -0.2991 -0.0000 0.9542
vn -0.6945 -0.0000 0.7195
vn -0.8621 -0.0000 0.5068
vn -0.9339 -0.0000 0.3576
vn -0.9683 -0.0000 0.2497
vn -0.9862 -0.0000 0.1656
vn -0.9955 -0.0000 0.0949
vn -0.9995 -0.0000 0.0309
vn -0.9995 -0.0000 -0.0309
vn -0.9955 -0.0000 -0.0949
vn -0.9862 -0.0000 -0.1656
vn -0.9683 -0.0000 -0.2497
vn -0.9339 -0.0000 -0.3576
vn -0.8621 -0.0000 -0.5068
vn -0.9993 0.0226 0.0309
vn -0.6945 -0.0000 -0.7195
vn -0.2991 -0.0000 -0.9542
vn 0.6935 0.0538 -0.7184
vn 0.9859 0.0252 0.1656
vn -0.9334 0.0331 0.3574
vn -0.9334 0.0331 -0.3574
vn 0.9952 0.0234 -0.0949
vn 0.2984 0.0685 0.9520
vn -0.9993 0.0226 -0.0309
vn 0.8613 0.0411 -0.5064
vn 0.9679 0.0282 0.2496
vn -0.9679 0.0282 0.2496
vn -0.8613 0.0411 -0.5064
vn 0.9993 0.0226 -0.0309
vn -0.2984 0.0685 0.9520
vn -0.9952 0.0234 -0.0949
vn 0.9334 0.0331 -0.3574
vn 0.9334 0.0331 0.3574
vn -0.9859 0.0252 0.1656
vn -0.6935 0.0538 -0.7184
vn 0.9993 0.0226 0.0309
vn -0.6935 0.0538 0.7184
vn -0.9859 0.0252 -0.1656
vn 0.9679 0.0282 -0.2496
vn 0.8613 0.0411 0.5064
vn -0.9952 0.0234 0.0949
vn 0.2984 0.0685 -0.9520
vn -0.2984 0.0685 -0.9520
vn 0.9952 0.0234 0.0949
vn -0.8613 0.0411 0.5064
vn -0.9679 0.0282 -0.2496
vn 0.9859 0.0252 -0.1656
vn 0.6935 0.0538 0.7184
vt 1.000000 0.500000
vt 1.000000 1.000000
vt 0.968750 1.000000
vt 0.968750 0.500000
vt 0.937500 1.000000
vt 0.937500 0.500000
vt 0.906250 1.000000
vt 0.906250 0.500000
vt 0.875000 1.000000
vt 0.875000 0.500000
vt 0.843750 1.000000
vt 0.843750 0.500000
vt 0.812500 1.000000
vt 0.812500 0.500000
vt 0.781250 1.000000
vt 0.781250 0.500000
vt 0.750000 1.000000
vt 0.750000 0.500000
vt 0.718750 1.000000
vt 0.718750 0.500000
vt 0.687500 1.000000
vt 0.687500 0.500000
vt 0.656250 1.000000
vt 0.656250 0.500000
vt 0.625000 1.000000
vt 0.625000 0.500000
vt 0.593750 1.000000
vt 0.593750 0.500000
vt 0.562500 1.000000
vt 0.562500 0.500000
vt 0.531250 1.000000
vt 0.531250 0.500000
vt 0.500000 1.000000
vt 0.500000 0.500000
vt 0.468750 1.000000
vt 0.468750 0.500000
vt 0.437500 1.000000
vt 0.437500 0.500000
vt 0.406250 1.000000
vt 0.406250 0.500000
vt 0.375000 1.000000
vt 0.375000 0.500000
vt 0.343750 1.000000
vt 0.343750 0.500000
vt 0.312500 1.000000
vt 0.312500 0.500000
vt 0.281250 1.000000
vt 0.281250 0.500000
vt 0.250000 1.000000
vt 0.250000 0.500000
vt 0.218750 1.000000
vt 0.218750 0.500000
vt 0.187500 1.000000
vt 0.187500 0.500000
vt 0.156250 1.000000
vt 0.156250 0.500000
vt 0.125000 1.000000
vt 0.125000 0.500000
vt 0.093750 1.000000
vt 0.093750 0.500000
vt 0.062500 1.000000
vt 0.062500 0.500000
vt 0.296822 0.485388
vt 0.250000 0.490000
vt 0.203178 0.485388
vt 0.158156 0.471731
vt 0.116663 0.449553
vt 0.080294 0.419706
vt 0.050447 0.383337
vt 0.028269 0.341844
vt 0.014612 0.296822
vt 0.010000 0.250000
vt 0.014612 0.203178
vt 0.028269 0.158156
vt 0.050447 0.116663
vt 0.080294 0.080294
vt 0.116663 0.050447
vt 0.158156 0.028269
vt 0.203178 0.014612
vt 0.250000 0.010000
vt 0.296822 0.014612
vt 0.341844 0.028269
vt 0.383337 0.050447
vt 0.419706 0.080294
vt 0.449553 0.116663
vt 0.471731 0.158156
vt 0.485388 0.203178
vt 0.490000 0.250000
vt 0.485388 0.296822
vt 0.471731 0.341844
vt 0.449553 0.383337
vt 0.419706 0.419706
vt 0.383337 0.449553
vt 0.341844 0.471731
vt 0.031250 1.000000
vt 0.031250 0.500000
vt 0.000000 1.000000
vt 0.000000 0.500000
vt 0.750000 0.490000
vt 0.796822 0.485388
vt 0.841844 0.471731
vt 0.883337 0.449553
vt 0.919706 0.419706
vt 0.949553 0.383337
vt 0.971731 0.341844
vt 0.985388 0.296822
vt 0.990000 0.250000
vt 0.985388 0.203178
vt 0.971731 0.158156
vt 0.949553 0.116663
vt 0.919706 0.080294
vt 0.883337 0.050447
vt 0.841844 0.028269
vt 0.796822 0.014612
vt 0.750000 0.010000
vt 0.703178 0.014612
vt 0.658156 0.028269
vt 0.616663 0.050447
vt 0.580294 0.080294
vt 0.550447 0.116663
vt 0.528269 0.158156
vt 0.514612 0.203178
vt 0.510000 0.250000
vt 0.514612 0.296822
vt 0.528269 0.341844
vt 0.550447 0.383337
vt 0.580294 0.419706
vt 0.616663 0.449553
vt 0.658156 0.471731
vt 0.703178 0.485388
s 0
f 1/1/1 2/2/1 4/3/1 3/4/1
f 3/4/2 4/3/2 6/5/2 5/6/2
f 5/6/3 6/5/3 8/7/3 7/8/3
f 7/8/4 8/7/4 10/9/4 9/10/4
f 9/10/5 10/9/5 12/11/5 11/12/5
f 11/12/6 12/11/6 14/13/6 13/14/6
f 13/14/7 14/13/7 16/15/7 15/16/7
f 15/16/8 16/15/8 18/17/8 17/18/8
f 17/18/9 18/17/9 20/19/9 19/20/9
f 19/20/10 20/19/10 22/21/10 21/22/10
f 21/22/11 22/21/11 24/23/11 23/24/11
f 23/24/12 24/23/12 26/25/12 25/26/12
f 25/26/13 26/25/13 28/27/13 27/28/13
f 27/28/14 28/27/14 30/29/14 29/30/14
f 29/30/15 30/29/15 32/31/15 31/32/15
f 31/32/16 32/31/16 34/33/16 33/34/16
f 33/34/17 34/33/17 36/35/17 35/36/17
f 35/36/18 36/35/18 38/37/18 37/38/18
f 37/38/19 38/37/19 40/39/19 39/40/19
f 39/40/20 40/39/20 42/41/20 41/42/20
f 41/42/21 42/41/21 44/43/21 43/44/21
f 43/44/22 44/43/22 46/45/22 45/46/22
f 45/46/23 46/45/23 48/47/23 47/48/23
f 47/48/24 48/47/24 50/49/24 49/50/24
f 49/50/25 50/49/25 52/51/25 51/52/25
f 51/52/26 52/51/26 54/53/26 53/54/26
f 53/54/27 54/53/27 56/55/27 55/56/27
f 55/56/28 56/55/28 58/57/28 57/58/28
f 57/58/29 58/57/29 60/59/29 59/60/29
f 59/60/30 60/59/30 62/61/30 61/62/30
f 4/63/31 2/64/31 64/65/31 62/66/31 60/67/31 58/68/31 56/69/31 54/70/31 52/71/31 50/72/31 48/73/31 46/74/31 44/75/31 42/76/31 40/77/31 38/78/31 36/79/31 34/80/31 32/81/31 30/82/31 28/83/31 26/84/31 24/85/31 22/86/31 20/87/31 18/88/31 16/89/31 14/90/31 12/91/31 10/92/31 8/93/31 6/94/31
f 61/62/32 62/61/32 64/95/32 63/96/32
f 63/96/33 64/95/33 2/97/33 1/98/33
f 1/99/34 3/100/34 5/101/34 7/102/34 9/103/34 11/104/34 13/105/34 15/106/34 17/107/34 19/108/34 21/109/34 23/110/34 25/111/34 27/112/34 29/113/34 31/114/34 33/115/34 35/116/34 37/117/34 39/118/34 41/119/34 43/120/34 45/121/34 47/122/34 49/123/34 51/124/34 53/125/34 55/126/34 57/127/34 59/128/34 61/129/34 63/130/34
f 65/1/35 66/2/35 68/3/35 67/4/35
f 67/4/36 68/3/36 70/5/36 69/6/36
f 69/6/37 70/5/37 72/7/37 71/8/37
f 71/8/38 72/7/38 74/9/38 73/10/38
f 73/10/39 74/9/39 76/11/39 75/12/39
f 75/12/40 76/11/40 78/13/40 77/14/40
f 77/14/41 78/13/41 80/15/41 79/16/41
f 79/16/42 80/15/42 82/17/42 81/18/42
f 81/18/43 82/17/43 84/19/43 83/20/43
f 83/20/44 84/19/44 86/21/44 85/22/44
f 85/22/45 86/21/45 88/23/45 87/24/45
f 87/24/46 88/23/46 90/25/46 89/26/46
f 89/26/47 90/25/47 92/27/47 91/28/47
f 91/28/48 92/27/48 94/29/48 93/30/48
f 93/30/49 94/29/49 96/31/49 95/32/49
f 95/32/50 96/31/50 98/33/50 97/34/50
f 97/34/51 98/33/51 100/35/51 99/36/51
f 99/36/52 100/35/52 102/37/52 101/38/52
f 101/38/53 102/37/53 104/39/53 103/40/53
f 103/40/54 104/39/54 106/41/54 105/42/54
f 105/42/55 106/41/55 108/43/55 107/44/55
f 107/44/56 108/43/56 110/45/56 109/46/56
f 109/46/57 110/45/57 112/47/57 111/48/57
f 111/48/58 112/47/58 114/49/58 113/50/58
f 113/50/59 114/49/59 116/51/59 115/52/59
f 115/52/60 116/51/60 118/53/60 117/54/60
f 117/54/61 118/53/61 120/55/61 119/56/61
f 119/56/62 120/55/62 122/57/62 121/58/62
f 121/58/63 122/57/63 124/59/63 123/60/63
f 123/60/64 124/59/64 126/61/64 125/62/64
f 68/63/31 66/64/31 128/65/31 126/66/31 124/67/31 122/68/31 120/69/31 118/70/31 116/71/31 114/72/31 112/73/31 110/74/31 108/75/31 106/76/31 104/77/31 102/78/31 100/79/31 98/80/31 96/81/31 94/82/31 92/83/31 90/84/31 88/85/31 86/86/31 84/87/31 82/88/31 80/89/31 78/90/31 76/91/31 74/92/31 72/93/31 70/94/31
f 125/62/65 126/61/65 128/95/65 127/96/65
f 127/96/66 128/95/66 66/97/66 65/98/66
f 65/99/34 67/100/34 69/101/34 71/102/34 73/103/34 75/104/34 77/105/34 79/106/34 81/107/34 83/108/34 85/109/34 87/110/34 89/111/34 91/112/34 93/113/34 95/114/34 97/115/34 99/116/34 101/117/34 103/118/34 105/119/34 107/120/34 109/121/34 111/122/34 113/123/34 115/124/34 117/125/34 119/126/34 121/127/34 123/128/34 125/129/34 127/130/34
f 129/1/67 130/2/67 132/3/67 131/4/67
f 131/4/68 132/3/68 134/5/68 133/6/68
f 133/6/69 134/5/69 136/7/69 135/8/69
f 135/8/70 136/7/70 138/9/70 137/10/70
f 137/10/71 138/9/71 140/11/71 139/12/71
f 139/12/72 140/11/72 142/13/72 141/14/72
f 141/14/73 142/13/73 144/15/73 143/16/73
f 143/16/74 144/15/74 146/17/74 145/18/74
f 145/18/75 146/17/75 148/19/75 147/20/75
f 147/20/76 148/19/76 150/21/76 149/22/76
f 149/22/77 150/21/77 152/23/77 151/24/77
f 151/24/78 152/23/78 154/25/78 153/26/78
f 153/26/79 154/25/79 156/27/79 155/28/79
f 155/28/80 156/27/80 158/29/80 157/30/80
f 157/30/81 158/29/81 160/31/81 159/32/81
f 159/32/82 160/31/82 162/33/82 161/34/82
f 161/34/83 162/33/83 164/35/83 163/36/83
f 163/36/84 164/35/84 166/37/84 165/38/84
f 165/38/85 166/37/85 168/39/85 167/40/85
f 167/40/86 168/39/86 170/41/86 169/42/86
f 169/42/87 170/41/87 172/43/87 171/44/87
f 171/44/88 172/43/88 174/45/88 173/46/88
f 173/46/89 174/45/89 176/47/89 175/48/89
f 175/48/90 176/47/90 178/49/90 177/50/90
f 177/50/91 178/49/91 180/51/91 179/52/91
f 179/52/92 180/51/92 182/53/92 181/54/92
f 181/54/93 182/53/93 184/55/93 183/56/93
f 183/56/94 184/55/94 186/57/94 185/58/94
f 185/58/95 186/57/95 188/59/95 187/60/95
f 187/60/96 188/59/96 190/61/96 189/62/96
f 178/49/97 176/47/97 216/47/97 217/49/97
f 189/62/98 190/61/98 192/95/98 191/96/98
f 191/96/99 192/95/99 130/97/99 129/98/99
f 129/99/34 131/100/34 133/101/34 135/102/34 137/103/34 139/104/34 141/105/34 143/106/34 145/107/34 147/108/34 149/109/34 151/110/34 153/111/34 155/112/34 157/113/34 159/114/34 161/115/34 163/116/34 165/117/34 167/118/34 169/119/34 171/120/34 173/121/34 175/122/34 177/123/34 179/124/34 181/125/34 183/126/34 185/127/34 187/128/34 189/129/34 191/130/34
f 193/63/31 194/64/31 224/65/31 223/66/31 222/67/31 221/68/31 220/69/31 219/70/31 218/71/31 217/72/31 216/73/31 215/74/31 214/75/31 213/76/31 212/77/31 211/78/31 210/79/31 209/80/31 208/81/31 207/82/31 206/83/31 205/84/31 204/85/31 203/86/31 202/87/31 201/88/31 200/89/31 199/90/31 198/91/31 197/92/31 196/93/31 195/94/31
f 134/5/100 132/3/100 193/3/100 195/5/100
f 152/23/101 150/21/101 203/21/101 204/23/101
f 170/41/102 168/39/102 212/39/102 213/41/102
f 188/59/103 186/57/103 221/57/103 222/59/103
f 144/15/104 142/13/104 199/13/104 200/15/104
f 162/33/105 160/31/105 208/31/105 209/33/105
f 180/51/106 178/49/106 217/49/106 218/51/106
f 136/7/107 134/5/107 195/5/107 196/7/107
f 154/25/108 152/23/108 204/23/108 205/25/108
f 172/43/109 170/41/109 213/41/109 214/43/109
f 190/61/110 188/59/110 222/59/110 223/61/110
f 146/17/111 144/15/111 200/15/111 201/17/111
f 164/35/112 162/33/112 209/33/112 210/35/112
f 182/53/113 180/51/113 218/51/113 219/53/113
f 138/9/114 136/7/114 196/7/114 197/9/114
f 156/27/115 154/25/115 205/25/115 206/27/115
f 174/45/116 172/43/116 214/43/116 215/45/116
f 192/95/117 190/61/117 223/61/117 224/95/117
f 148/19/118 146/17/118 201/17/118 202/19/118
f 166/37/119 164/35/119 210/35/119 211/37/119
f 184/55/120 182/53/120 219/53/120 220/55/120
f 140/11/121 138/9/121 197/9/121 198/11/121
f 158/29/122 156/27/122 206/27/122 207/29/122
f 176/47/123 174/45/123 215/45/123 216/47/123
f 132/3/124 130/2/124 194/2/124 193/3/124
f 130/97/125 192/95/125 224/95/125 194/97/125
f 150/21/126 148/19/126 202/19/126 203/21/126
f 168/39/127 166/37/127 211/37/127 212/39/127
f 186/57/128 184/55/128 220/55/128 221/57/128
f 142/13/129 140/11/129 198/11/129 199/13/129
f 160/31/130 158/29/130 207/29/130 208/31/130
